Coordinates
version=1
nRows=16
nColumns=22
inDegrees=yes

Units are S.I. units (second, meters, Newtons, ...)
If the header above contains a line with 'inDegrees', this indicates whether rotational values are in degrees (yes) or radians (no).

endheader
time	pelvis_tilt	pelvis_list	pelvis_rotation	pelvis_tx	pelvis_ty	pelvis_tz	hip_flexion_r	hip_adduction_r	hip_rotation_r	knee_angle_r	ankle_angle_r	subtalar_angle_r	hip_flexion_l	hip_adduction_l	hip_rotation_l	knee_angle_l	ankle_angle_l	subtalar_angle_l	lumbar_extension	lumbar_bending	lumbar_rotation
      0.01000000	      2.35539491	     -3.18915493	     -2.41285646	     -0.07986999	      0.93689441	      1.04968899	     -3.36466248	      0.88697092	     -4.14805176	     -8.63545579	      4.95216068	      8.50833307	     -4.12186373	     -7.60049670	    -10.06911024	     -9.66411240	      8.13396243	      2.49433747	     -5.03027602	     -0.17904344	      1.50958795
      0.02000000	      2.34722037	     -3.20841933	     -2.41573804	     -0.07982493	      0.93688330	      1.04969649	     -3.35097945	      0.90714009	     -4.16040711	     -8.65311123	      4.97136217	      8.51509830	     -4.13414483	     -7.61880677	    -10.04620462	     -9.63142382	      8.14540745	      2.48769289	     -5.02990850	     -0.15904073	      1.50273969
      0.03000000	      2.34180437	     -3.21008004	     -2.41884960	     -0.07978607	      0.93687810	      1.04970083	     -3.34840938	      0.90881851	     -4.16340442	     -8.65024966	      4.97196198	      8.51552491	     -4.13207709	     -7.62024702	    -10.04533705	     -9.63081701	      8.14604626	      2.48731913	     -5.03790337	     -0.16189417	      1.50260019
      0.04000000	      2.33541994	     -3.21237190	     -2.42234477	     -0.07973872	      0.93687326	      1.04970670	     -3.34526462	      0.91102692	     -4.16740385	     -8.64821597	      4.97246546	      8.51585035	     -4.12976968	     -7.62273465	    -10.04507689	     -9.62980269	      8.14695184	      2.48690047	     -5.04689282	     -0.16544608	      1.50234054
      0.05000000	      2.32838358	     -3.21504903	     -2.42578648	     -0.07968635	      0.93686703	      1.04971159	     -3.34109461	      0.91383537	     -4.17202375	     -8.64716421	      4.97287042	      8.51605493	     -4.12728705	     -7.62564065	    -10.04545484	     -9.62856747	      8.14811705	      2.48648272	     -5.05698411	     -0.16952671	      1.50195372
      0.06000000	      2.32078564	     -3.22444947	     -2.42576777	     -0.07964234	      0.93685424	      1.04971275	     -3.32138670	      0.92266422	     -4.20271048	     -8.67591487	      4.97375995	      8.51592361	     -4.11819356	     -7.63757325	    -10.05194068	     -9.63767940	      8.15910267	      2.48342766	     -5.06966814	     -0.16646452	      1.50369669
      0.07000000	      2.31261796	     -3.22611165	     -2.42910924	     -0.07957947	      0.93684463	      1.04971266	     -3.31724575	      0.92452840	     -4.20443045	     -8.67327055	      4.97473500	      8.51591656	     -4.11528223	     -7.63886241	    -10.05231690	     -9.63622744	      8.16019016	      2.48329336	     -5.07969402	     -0.17144405	      1.50186887
      0.08000000	      2.30465238	     -3.22751792	     -2.43043468	     -0.07951524	      0.93683448	      1.04971334	     -3.31232690	      0.92655025	     -4.20524691	     -8.67339692	      4.97553311	      8.51581747	     -4.11211464	     -7.64042315	    -10.05322853	     -9.63468973	      8.16154563	      2.48319813	     -5.09042478	     -0.17805063	      1.49988872
      0.09000000	      2.29691358	     -3.22283481	     -2.42823532	     -0.07946862	      0.93682032	      1.04970814	     -3.29299577	      0.92143160	     -4.20057148	     -8.70284776	      4.97999852	      8.51416593	     -4.10190109	     -7.63657668	    -10.05620697	     -9.64310452	      8.16949919	      2.48321443	     -5.10364120	     -0.19152566	      1.48884038
      0.10000000	      2.28883599	     -3.22350448	     -2.42990708	     -0.07939851	      0.93680773	      1.04970055	     -3.28835449	      0.92211786	     -4.20133579	     -8.70210960	      4.98170365	      8.51407802	     -4.09897149	     -7.63651947	    -10.05683899	     -9.64168133	      8.17040314	      2.48314579	     -5.11318957	     -0.19724263	      1.48824881
      0.11000000	      2.28163658	     -3.22258204	     -2.42615036	     -0.07932891	      0.93679459	      1.04969094	     -3.28280689	      0.92201987	     -4.19840980	     -8.70681226	      4.98369261	      8.51389618	     -4.09551494	     -7.63581807	    -10.05808467	     -9.63986306	      8.17196553	      2.48312292	     -5.12325090	     -0.20644599	      1.48731262
      0.12000000	      2.26180649	     -3.18691940	     -2.43520721	     -0.07927548	      0.93675646	      1.04967363	     -3.23954549	      0.88043454	     -4.18360811	     -8.75563584	      5.03219145	      8.51169562	     -4.07367833	     -7.59462937	    -10.06133416	     -9.64857408	      8.17752367	      2.47971291	     -5.11699131	     -0.25262285	      1.49254164
      0.13000000	      2.25573258	     -3.18745081	     -2.42929641	     -0.07919469	      0.93674449	      1.04965722	     -3.23665752	      0.88213610	     -4.18020032	     -8.75887746	      5.03256781	      8.51158168	     -4.07225518	     -7.59511099	    -10.06254657	     -9.64566830	      8.17736385	      2.47928537	     -5.12444031	     -0.25838590	      1.49204886
      0.14000000	      2.25063012	     -3.18596176	     -2.42128623	     -0.07911379	      0.93673218	      1.04963900	     -3.23287325	      0.88137563	     -4.17202603	     -8.76717261	      5.03370616	      8.51142860	     -4.07116421	     -7.59365071	    -10.06268961	     -9.64305841	      8.17777962	      2.47877300	     -5.13296042	     -0.26677012	      1.49089481
      0.15000000	      2.24913320	     -3.16859598	     -2.42728773	     -0.07905176	      0.93672235	      1.04962397	     -3.21858067	      0.86063745	     -4.13926334	     -8.80005798	      5.04758176	      8.51122973	     -4.07363808	     -7.57160229	    -10.05224543	     -9.64482705	      8.17941825	      2.47614767	     -5.14707695	     -0.29000932	      1.48479045
      0.16000000	      2.24241175	     -3.16767482	     -2.42127949	     -0.07895990	      0.93670658	      1.04961043	     -3.21681480	      0.86053992	     -4.13710480	     -8.80103517	      5.05058725	      8.51139164	     -4.07305834	     -7.57063294	    -10.05431981	     -9.64074286	      8.17962369	      2.47557018	     -5.15308341	     -0.29785453	      1.48798181
